<svg xmlns="http://www.w3.org/2000/svg" class="nav-global-icon" height="100px" width="100px" viewBox="0 0 1000 1000">
  <path d="m 150.5,899 a 50,50 0 0 1 -49,-50 V 749 a 50,50 0 0 1 49,-50 h 100 a 50,50 0 0 1 50,50 v 100 a 50,50 0 0 1 -50,50 z m 299,0 a 50,50 0 0 1 -50,-50 V 749 a 50,50 0 0 1 50,-50 h 100 a 50,50 0 0 1 50,50 v 100 a 50,50 0 0 1 -50,50 z m 299,0 a 50,50 0 0 1 -50,-50 V 749 a 50,50 0 0 1 50,-50 h 100 a 50,50 0 0 1 50,50 v 100 a 50,50 0 0 1 -50,50 z m -598,-299 a 50,50 0 0 1 -49,-50 V 450 a 50,50 0 0 1 49,-50 h 100 a 50,50 0 0 1 50,50 v 100 a 50,50 0 0 1 -50,50 z m 299,0 a 50,50 0 0 1 -50,-50 V 450 a 50,50 0 0 1 50,-50 h 100 a 50,50 0 0 1 50,50 v 100 a 50,50 0 0 1 -50,50 z m 299,0 a 50,50 0 0 1 -50,-50 V 450 a 50,50 0 0 1 50,-50 h 100 a 50,50 0 0 1 50,50 v 100 a 50,50 0 0 1 -50,50 z m -598,-299 a 50,50 0 0 1 -49,-50 V 151 a 50,50 0 0 1 49,-50 h 100 a 50,50 0 0 1 50,50 v 100 a 50,50 0 0 1 -50,50 z m 299,0 a 50,50 0 0 1 -50,-50 V 151 a 50,50 0 0 1 50,-50 h 100 a 50,50 0 0 1 50,50 v 100 a 50,50 0 0 1 -50,50 z m 299,0 a 50,50 0 0 1 -50,-50 V 151 a 50,50 0 0 1 50,-50 h 100 a 50,50 0 0 1 50,50 v 100 a 50,50 0 0 1 -50,50 z"/>
</svg>
